PathFileType	4	(X/Y/Z)	C:\Users\mayra\OneDrive - Universitat Pompeu Fabra\PhD_Mayra\OpenSim\aurel\ID_04_Walking_14.trc
DataRate	CameraRate	NumFrames	NumMarkers	Units	OrigDataRate	OrigDataStartFrame	OrigNumFrames
250.00	250.00	16	18	mm	250.00	82	1846
Frame#	Time	r.should			l.should			c7			r.asis			l.asis			sacrum			r.bar1			l.bar1			r.knee1			l.knee1			r.bar2			r.mall			l.bar2			l.mall			r.met			r.heel			l.heel			l.met			
		X1	Y1	Z1	X2	Y2	Z2	X3	Y3	Z3	X4	Y4	Z4	X5	Y5	Z5	X6	Y6	Z6	X7	Y7	Z7	X8	Y8	Z8	X9	Y9	Z9	X10	Y10	Z10	X11	Y11	Z11	X12	Y12	Z12	X13	Y13	Z13	X14	Y14	Z14	X15	Y15	Z15	X16	Y16	Z16	X17	Y17	Z17	X18	Y18	Z18	

1032	4.128000	-493.080944	1216.587543	406.064928	-496.004701	1229.888558	132.031858	-576.393008	1287.601471	266.853750	-403.773665	839.325905	392.544419	-382.993937	836.225688	157.969445	-633.508921	886.423230	242.878661	-518.527150	766.758919	459.937990	-460.130483	735.301375	77.642553	-580.195546	432.029843	397.917122	-349.542886	461.291254	153.949365	-624.320269	380.354762	392.593861	-810.933232	105.556734	349.998176	-344.859302	387.539208	154.241920	-288.452715	74.089408	178.357512	-694.161057	38.543895	333.640367	-860.705495	118.123740	301.666051	-339.526743	49.110413	215.457350	-154.020950	56.856964	213.434517	
1033	4.132000	-488.140464	1216.948867	405.415297	-491.073996	1230.067730	131.399408	-571.428716	1288.039446	266.162783	-398.757279	839.464068	391.650826	-378.430843	837.043881	157.326356	-628.903151	886.677742	242.385834	-503.782690	760.222793	450.922430	-455.109835	736.202180	77.222325	-573.563159	432.102174	397.983521	-345.834881	461.851954	152.968630	-618.019342	380.679429	392.803669	-808.518708	108.726412	350.270003	-341.110647	387.755632	153.489143	-287.862480	73.534973	177.983388	-693.616509	38.539510	333.641052	-857.523263	122.500330	301.821083	-338.647515	48.968084	215.195388	-153.586298	54.856539	213.023812	
1034	4.136000	-483.165622	1217.384100	404.764444	-486.158431	1230.339646	130.758911	-566.468716	1288.534045	265.501261	-393.834651	839.630842	390.743911	-374.226868	838.325620	156.111807	-624.277830	886.988878	241.930261	-501.566112	761.928260	452.874094	-450.028330	737.096965	76.767951	-566.607296	432.188600	398.074329	-342.083275	462.340325	151.949346	-611.348569	381.004542	393.066764	-805.835187	112.057611	350.522876	-337.426275	387.987345	152.720183	-287.581176	73.179446	177.564934	-692.984581	38.525708	333.619475	-853.933096	127.023518	301.920205	-338.029772	48.911985	215.147600	-153.432891	53.096965	212.345406	
1035	4.140000	-478.217304	1217.941284	404.138893	-481.257439	1230.674148	130.145609	-561.512113	1289.077997	264.835775	-388.962507	839.847445	389.850020	-369.530588	839.441657	155.452266	-619.642496	887.333930	241.513982	-507.943928	769.247890	462.317407	-445.015132	737.986922	76.274939	-559.271812	432.247728	398.205847	-338.281393	462.781698	150.948614	-604.360461	381.350070	393.400192	-802.838385	115.552276	350.759298	-333.782524	388.258338	151.955292	-285.861135	71.760990	178.591117	-692.232847	38.495984	333.555073	-849.901557	131.665766	301.952899	-337.273777	49.671266	216.102064	-153.294116	51.740695	211.515084	
1036	4.144000	-473.177224	1218.567848	403.514445	-476.322889	1231.076121	129.542351	-556.549489	1289.686680	264.164865	-384.107560	840.125740	388.913631	-364.716947	840.426266	155.019313	-615.016699	887.689590	241.115510	-505.587578	770.861506	464.155614	-439.941257	738.944292	75.707011	-550.729394	432.436168	398.933530	-334.390461	463.177860	150.030434	-597.017884	381.695747	393.786252	-799.493670	119.205683	350.998521	-330.165178	388.560414	151.237220	-282.228947	68.869919	181.515753	-691.350698	38.432769	333.442777	-845.450878	136.451468	301.926345	-336.204588	51.432200	218.241021	-153.110757	50.795581	210.714906	
1037	4.148000	-468.129337	1219.275236	402.823627	-471.357852	1231.541395	128.952175	-551.587880	1290.337324	263.507903	-379.298985	840.412259	387.986749	-360.085726	841.364503	154.602468	-610.428929	888.065636	240.742028	-500.914991	770.962417	464.002818	-434.873343	739.913285	75.099997	-540.780365	432.788610	400.360703	-330.454528	463.530749	149.206862	-589.317620	382.028788	394.206226	-795.684814	122.735932	351.052552	-326.545537	388.858527	150.572300	-281.055719	68.101577	182.184801	-690.355003	38.329452	333.312958	-840.389252	141.117781	301.684439	-335.635066	52.098341	218.881398	-152.797237	50.072029	210.144982	
1038	4.152000	-463.066399	1219.975471	402.140617	-466.416866	1232.076049	128.351629	-546.656728	1291.024208	262.876481	-374.523163	840.732038	387.042433	-355.365962	842.331171	154.183462	-605.875254	888.450205	240.368247	-495.804518	770.784795	463.413149	-429.791331	740.982652	74.433327	-531.952858	432.798475	400.954902	-326.504320	463.860959	148.500055	-581.280887	382.325828	394.674867	-791.682959	125.908583	350.838065	-323.034823	389.157295	149.955690	-280.433774	67.856088	182.309166	-689.216971	38.195059	333.140433	-834.600210	145.545721	301.151097	-335.282713	52.441940	219.066858	-152.379602	49.380913	209.954292	
1039	4.156000	-457.983106	1220.696926	401.445061	-461.528301	1232.687473	127.757281	-541.746020	1291.743755	262.255758	-369.749963	841.110110	386.079818	-350.422323	843.012869	154.087424	-601.356089	888.835967	240.007490	-490.690976	770.594895	462.917864	-424.785912	742.197514	73.719412	-523.214042	432.705194	401.413441	-322.591752	464.197338	147.855088	-572.941780	382.612437	395.180494	-787.682235	129.269183	350.927293	-319.662511	389.456809	149.396226	-279.712737	67.506924	182.483137	-687.928677	38.000233	332.924306	-828.657746	150.378361	301.022917	-335.365951	51.901009	217.990726	-151.924551	48.743062	210.173085	
1040	4.160000	-452.970862	1221.377373	400.704086	-456.655800	1233.359694	127.169490	-536.848783	1292.469144	261.640906	-365.033209	841.545761	385.111123	-345.453203	843.533993	154.161900	-596.856833	889.227211	239.670455	-485.494822	770.300746	462.274909	-419.839561	743.509948	72.971761	-514.375448	432.587534	401.886940	-318.799138	464.559138	147.262365	-564.362705	382.884234	395.742059	-782.700658	133.116618	351.219118	-316.400439	389.741898	148.896813	-278.699726	66.902965	182.855204	-686.475456	37.718579	332.617462	-822.352469	155.258507	301.023841	-335.800827	50.383415	215.480804	-151.506335	48.207305	210.705563	
1041	4.164000	-448.123366	1221.991062	400.039643	-451.799870	1234.087586	126.589328	-531.947255	1293.202281	261.049151	-360.298604	842.013419	384.115279	-341.739386	844.576180	153.073102	-592.405260	889.634728	239.339575	-480.173171	769.957840	461.519450	-414.921522	744.923353	72.178915	-505.324602	432.422161	402.489424	-315.195620	464.983821	146.704450	-555.502534	383.104354	396.331012	-777.147293	136.979908	351.565748	-313.267440	389.979035	148.481891	-278.189689	66.614985	183.003232	-684.823871	37.343539	332.187444	-815.627456	160.075486	301.044762	-335.600227	50.081007	214.824021	-151.148334	47.773618	211.335033	
1042	4.168000	-443.248302	1222.777605	399.477541	-446.911097	1234.846234	125.982970	-527.052760	1293.931842	260.461301	-355.688661	842.474163	383.141458	-337.025166	845.206738	152.863950	-587.977648	890.048742	239.006698	-474.666953	769.539118	460.709691	-409.996837	746.461332	71.356222	-496.083260	432.196349	403.106302	-311.785698	465.447277	146.137387	-546.415806	383.267134	396.936953	-771.166205	140.708178	351.895154	-310.274780	390.202403	148.097396	-277.812719	66.431001	183.097780	-682.964146	36.873266	331.667572	-808.530986	164.807141	301.096439	-335.269392	50.030038	214.635581	-150.841877	47.392987	211.928323	
1043	4.172000	-438.301355	1223.626256	398.804784	-441.995919	1235.609293	125.427306	-522.197962	1294.652462	259.872884	-351.064026	842.948377	382.197440	-331.812203	845.594764	153.179497	-583.547294	890.475214	238.662750	-469.397038	769.241273	459.989756	-405.028522	748.064518	70.520096	-486.691087	431.876242	403.829575	-308.627903	465.912938	145.532176	-537.127137	383.334100	397.578031	-764.865160	144.286484	352.212667	-307.485819	390.415996	147.721156	-277.542323	66.395722	183.166489	-680.917144	36.340598	331.103146	-801.178575	169.449225	301.146686	-334.935546	50.037757	214.603722	-150.585204	47.042236	212.406948	
1044	4.176000	-433.262140	1224.448919	398.072302	-437.141120	1236.386776	124.882728	-517.371893	1295.353889	259.303451	-346.514106	843.441188	381.265104	-326.983213	846.278012	152.893841	-579.143286	890.923619	238.325506	-464.182943	768.970609	459.290743	-400.213957	749.667346	69.686070	-477.219343	431.479752	404.562384	-305.734128	466.352463	144.871518	-527.661860	383.331835	398.245513	-758.303225	147.748828	352.558523	-304.902971	390.602916	147.360474	-277.217209	66.363931	183.254465	-679.058075	35.825938	330.679417	-793.805599	174.048677	301.163524	-334.625691	50.018288	214.661434	-150.368974	46.691503	212.716848	
1045	4.180000	-428.351939	1225.246549	397.408932	-432.283074	1237.168789	124.377258	-512.580037	1296.033263	258.766234	-342.018664	843.933344	380.378067	-322.833240	847.239435	152.046770	-574.790716	891.379476	238.000542	-458.868861	768.622696	458.576709	-395.344615	751.312375	68.845794	-468.493283	430.852592	404.799223	-303.111881	466.696501	144.157141	-518.060267	383.239716	398.954630	-751.630485	151.207536	352.901667	-302.564174	390.765637	147.008732	-276.909620	66.358075	183.359295	-676.776052	35.756595	330.784261	-786.519408	178.602457	301.265299	-334.389001	49.982209	214.786991	-150.174379	46.319626	212.849140	
1046	4.184000	-423.465878	1226.047277	396.720439	-427.469552	1237.944841	123.875141	-507.822871	1296.689749	258.248210	-337.534755	844.425738	379.519641	-319.233000	848.446488	150.718048	-570.455313	891.866505	237.694293	-453.630775	768.302619	457.812637	-390.424132	752.950549	67.972973	-460.749090	429.935396	404.372990	-300.746620	466.941059	143.387407	-508.338869	383.045316	399.710625	-744.938910	154.842108	353.181958	-300.418407	390.880257	146.606594	-276.697576	66.419840	183.431774	-672.836781	36.692090	331.137300	-779.407680	183.178976	301.513135	-334.193826	49.949188	214.971066	-149.998248	45.932367	212.860465	
1047	4.188000	-418.661565	1226.837873	396.104693	-422.648758	1238.699913	123.400740	-503.099620	1297.321916	257.722497	-333.129406	844.916940	378.709376	-314.965487	849.360347	149.988577	-566.142619	892.390490	237.380430	-448.412299	767.990708	457.080156	-385.508150	754.545271	67.087643	-451.465070	429.225713	404.837191	-298.632979	467.058837	142.534211	-498.597205	382.798076	400.494933	-738.240242	158.733904	353.398979	-298.449785	390.908748	146.169305	-276.526153	66.479996	183.497146	-669.322371	37.989594	330.792695	-772.388458	187.819108	302.011043	-334.058702	49.933489	215.137541	-149.816662	45.543004	212.830305	
